<svg width="16" height="12" viewBox="0 0 16 12" fill="none" xmlns="http://www.w3.org/2000/svg">
<path d="M3.248 11V3.752C3.248 3.53867 3.248 3.32 3.248 3.096C3.25867 2.86133 3.26933 2.616 3.28 2.36C2.91733 2.712 2.50133 3.016 2.032 3.272C1.57333 3.51733 1.09867 3.69333 0.608 3.8L0.288 2.312C0.512 2.28 0.773333 2.20533 1.072 2.088C1.37067 1.97067 1.68 1.82133 2 1.64C2.32 1.45867 2.61333 1.26667 2.88 1.064C3.14667 0.850666 3.35467 0.642666 3.504 0.44H4.944V11H3.248ZM11.4615 11.16C10.1922 11.16 9.19483 10.7013 8.4695 9.784C7.75483 8.856 7.3975 7.50133 7.3975 5.72C7.3975 3.93867 7.75483 2.58933 8.4695 1.672C9.19483 0.744 10.1922 0.28 11.4615 0.28C12.7415 0.28 13.7388 0.744 14.4535 1.672C15.1788 2.58933 15.5415 3.93867 15.5415 5.72C15.5415 7.50133 15.1788 8.856 14.4535 9.784C13.7388 10.7013 12.7415 11.16 11.4615 11.16ZM11.4615 9.704C11.9735 9.704 12.4002 9.56 12.7415 9.272C13.0935 8.97333 13.3548 8.53067 13.5255 7.944C13.7068 7.34667 13.7975 6.60533 13.7975 5.72C13.7975 4.83467 13.7068 4.09867 13.5255 3.512C13.3548 2.91467 13.0935 2.472 12.7415 2.184C12.4002 1.88533 11.9735 1.736 11.4615 1.736C10.9495 1.736 10.5175 1.88533 10.1655 2.184C9.82417 2.472 9.56817 2.91467 9.3975 3.512C9.22683 4.09867 9.1415 4.83467 9.1415 5.72C9.1415 6.60533 9.22683 7.34667 9.3975 7.944C9.56817 8.53067 9.82417 8.97333 10.1655 9.272C10.5175 9.56 10.9495 9.704 11.4615 9.704Z" fill="#006D77"/>
</svg>
