<svg width="15" height="11" viewBox="0 0 15 11" fill="none" xmlns="http://www.w3.org/2000/svg">
<path d="M3.33394 11V3.752C3.33394 3.53867 3.33394 3.32 3.33394 3.096C3.3446 2.86133 3.35527 2.616 3.36594 2.36C3.00327 2.712 2.58727 3.016 2.11794 3.272C1.65927 3.51733 1.1846 3.69333 0.693938 3.8L0.373938 2.312C0.597938 2.28 0.859271 2.20533 1.15794 2.088C1.4566 1.97067 1.76594 1.82133 2.08594 1.64C2.40594 1.45867 2.69927 1.26667 2.96594 1.064C3.2326 0.850666 3.4406 0.642666 3.58994 0.44H5.02994V11H3.33394ZM7.64344 11V9.752C8.65677 9.02667 9.50477 8.38667 10.1874 7.832C10.8808 7.27733 11.4354 6.76533 11.8514 6.296C12.2674 5.82667 12.5661 5.384 12.7474 4.968C12.9394 4.54133 13.0354 4.10933 13.0354 3.672C13.0354 3.10667 12.8594 2.648 12.5074 2.296C12.1554 1.944 11.6648 1.768 11.0354 1.768C10.3741 1.768 9.8461 1.992 9.45144 2.44C9.06744 2.87733 8.84877 3.48 8.79544 4.248L7.30744 3.56C7.3821 2.888 7.57944 2.30667 7.89944 1.816C8.21944 1.32533 8.65144 0.946666 9.19544 0.679999C9.7501 0.413333 10.3901 0.28 11.1154 0.28C11.7128 0.28 12.2354 0.365333 12.6834 0.535999C13.1421 0.706666 13.5261 0.946666 13.8354 1.256C14.1448 1.55467 14.3794 1.90667 14.5394 2.312C14.7101 2.71733 14.7954 3.14933 14.7954 3.608C14.7954 4.28 14.6301 4.93067 14.2994 5.56C13.9688 6.17867 13.4461 6.81333 12.7314 7.464C12.0168 8.11467 11.0781 8.81333 9.91544 9.56V9.592C10.0434 9.57067 10.2194 9.56 10.4434 9.56C10.6674 9.54933 10.8914 9.544 11.1154 9.544C11.3394 9.53333 11.5208 9.528 11.6594 9.528H14.9874V11H7.64344Z" fill="#006D77"/>
</svg>
