<svg width="16" height="11" viewBox="0 0 16 11" fill="none" xmlns="http://www.w3.org/2000/svg">
<path d="M3.55269 11V3.752C3.55269 3.53867 3.55269 3.32 3.55269 3.096C3.56335 2.86133 3.57402 2.616 3.58469 2.36C3.22202 2.712 2.80602 3.016 2.33669 3.272C1.87802 3.51733 1.40335 3.69333 0.912688 3.8L0.592688 2.312C0.816688 2.28 1.07802 2.20533 1.37669 2.088C1.67535 1.97067 1.98469 1.82133 2.30469 1.64C2.62469 1.45867 2.91802 1.26667 3.18469 1.064C3.45135 0.850666 3.65935 0.642666 3.80869 0.44H5.24869V11H3.55269ZM12.5982 11V8.36H7.44619V7.192C7.46752 7.13867 7.49952 7.07467 7.54219 7C7.59552 6.92533 7.65419 6.84 7.71819 6.744L12.1182 0.44H14.2142V7.032H16.0062V8.36H14.2142V11H12.5982ZM9.04619 7.032H12.5982V3.304C12.5982 3.048 12.6035 2.78667 12.6142 2.52C12.6355 2.24267 12.6515 1.97067 12.6622 1.704H12.6302C12.5129 1.96 12.3582 2.24267 12.1662 2.552C11.9849 2.85067 11.8142 3.112 11.6542 3.336L9.15819 6.888C9.13685 6.90933 9.11552 6.93067 9.09419 6.952C9.08352 6.97333 9.06752 7 9.04619 7.032Z" fill="#006D77"/>
</svg>
