<svg width="9" height="12" viewBox="0 0 9 12" fill="none" xmlns="http://www.w3.org/2000/svg">
<path d="M4.05449 0.296C4.76916 0.296 5.38783 0.413333 5.91049 0.648C6.44383 0.871999 6.85449 1.192 7.14249 1.608C7.43049 2.024 7.57449 2.52533 7.57449 3.112C7.57449 3.656 7.44116 4.136 7.17449 4.552C6.91849 4.95733 6.53983 5.26667 6.03849 5.48V5.496C6.64649 5.72 7.12649 6.056 7.47849 6.504C7.84116 6.94133 8.02249 7.48533 8.02249 8.136C8.02249 8.76533 7.85716 9.304 7.52649 9.752C7.20649 10.2 6.74783 10.5467 6.15049 10.792C5.56383 11.0373 4.86516 11.16 4.05449 11.16C3.24383 11.16 2.53983 11.0373 1.94249 10.792C1.35583 10.5467 0.897161 10.2 0.566494 9.752C0.235827 9.304 0.0704939 8.76533 0.0704939 8.136C0.0704939 7.496 0.246494 6.952 0.598494 6.504C0.950494 6.056 1.44116 5.72 2.07049 5.496V5.48C1.59049 5.27733 1.21183 4.97333 0.934494 4.568C0.657161 4.152 0.518494 3.66667 0.518494 3.112C0.518494 2.52533 0.662494 2.024 0.950494 1.608C1.23849 1.192 1.64916 0.871999 2.18249 0.648C2.71583 0.413333 3.33983 0.296 4.05449 0.296ZM4.05449 1.736C3.48916 1.736 3.03583 1.87467 2.69449 2.152C2.36383 2.42933 2.19849 2.808 2.19849 3.288C2.19849 3.768 2.36916 4.14667 2.71049 4.424C3.05183 4.69067 3.49983 4.824 4.05449 4.824C4.60916 4.824 5.05183 4.69067 5.38249 4.424C5.72383 4.14667 5.89449 3.768 5.89449 3.288C5.89449 2.808 5.72916 2.42933 5.39849 2.152C5.06783 1.87467 4.61983 1.736 4.05449 1.736ZM4.05449 9.72C4.52383 9.72 4.92383 9.65067 5.25449 9.512C5.58516 9.37333 5.84116 9.17067 6.02249 8.904C6.20383 8.63733 6.29449 8.328 6.29449 7.976C6.29449 7.60267 6.19849 7.288 6.00649 7.032C5.82516 6.76533 5.56916 6.56267 5.23849 6.424C4.90783 6.28533 4.51316 6.216 4.05449 6.216C3.60649 6.216 3.21183 6.28533 2.87049 6.424C2.52916 6.56267 2.26249 6.76533 2.07049 7.032C1.88916 7.288 1.79849 7.60267 1.79849 7.976C1.79849 8.328 1.88916 8.63733 2.07049 8.904C2.25183 9.17067 2.51316 9.37333 2.85449 9.512C3.19583 9.65067 3.59583 9.72 4.05449 9.72Z" fill="#006D77"/>
</svg>
