<svg width="32" height="29" viewBox="0 0 32 29" fill="none" xmlns="http://www.w3.org/2000/svg">
<path d="M22.7695 6.93811C22.7695 3.39342 19.8693 0.493164 16.3246 0.493164C12.7799 0.493164 9.87964 3.39342 9.87964 6.93811C9.87964 10.4828 12.7799 13.3831 16.3246 13.3831C19.8693 13.3831 22.7695 10.4828 22.7695 6.93811ZM11.3669 6.93811L14.4655 5.12854C14.9613 4.83108 15.581 5.20291 15.581 5.77304V6.93806C15.581 7.35946 15.9032 7.6817 16.3246 7.6817H21.208C20.8609 10.0614 18.8035 11.8957 16.3246 11.8957C13.5979 11.8957 11.367 9.66477 11.367 6.93806L11.3669 6.93811Z" fill="white"/>
<path d="M28.8677 20.0015C28.6694 19.6545 28.1984 19.5305 27.8513 19.7288C27.5042 19.9271 27.3803 20.3981 27.5786 20.7452L30.2558 25.3558C30.3797 25.5541 30.4541 25.7772 30.4541 26.0251C30.4541 26.7191 29.9087 27.2645 29.2147 27.2645H25.5708L26.364 17.7707C26.4136 17.151 26.2153 16.5313 25.7939 16.0851C25.3726 15.6389 24.7528 15.3662 24.1332 15.3662H8.31853C7.6988 15.3662 7.07912 15.6389 6.65775 16.1099C6.23637 16.5808 6.03801 17.2005 6.08764 17.845L7.07917 27.2895H3.43533C2.74126 27.2895 2.19591 26.7442 2.19591 26.0501C2.19591 25.827 2.27028 25.6039 2.36943 25.4056C2.39422 25.3808 5.07138 20.7702 5.07138 20.7702C5.26969 20.4232 5.14575 19.9522 4.79871 19.7539C4.45167 19.5556 3.98067 19.6795 3.78236 20.0265L1.15481 24.538C0.857348 24.9842 0.708618 25.5047 0.708618 26.0253C0.708618 27.5374 1.92327 28.752 3.43533 28.752H7.89721H7.97158H14.8131H14.8379H29.2151C30.7272 28.752 31.9418 27.5374 31.9418 26.0253C31.9418 25.5048 31.7931 24.9842 31.4956 24.538L28.8681 20.0018L28.8677 20.0015ZM16.0769 23.2984C15.2589 23.2984 14.5896 22.6291 14.5896 21.8111C14.5896 20.993 15.2589 20.3238 16.0769 20.3238C16.895 20.3238 17.5642 20.993 17.5642 21.8111C17.5642 22.6291 16.895 23.2984 16.0769 23.2984Z" fill="white"/>
</svg>
